<svg version="1.1" xmlns="http://www.w3.org/2000/svg"
xmlns:xlink="http://www.w3.org/1999/xlink">
   <symbol id="logo" viewbox="0 0 30 30"><path fill-rule="evenodd" clip-rule="evenodd" d="m6.091 5.47 2.233 2.233a10.223 10.223 0 0 1 5.883-2.437V2.108A13.357 13.357 0 0 0 6.091 5.47Zm9.702-3.362v3.158a10.224 10.224 0 0 1 5.883 2.437l2.233-2.233a13.357 13.357 0 0 0-8.116-3.362Zm9.237 4.483-2.233 2.233a10.223 10.223 0 0 1 2.437 5.883h3.158a13.357 13.357 0 0 0-3.362-8.116Zm3.362 9.702h-3.158a10.223 10.223 0 0 1-2.437 5.883l2.233 2.233a13.357 13.357 0 0 0 3.362-8.116Zm-4.483 9.237-2.233-2.233a10.223 10.223 0 0 1-5.883 2.437v3.158c3.107-.181 5.93-1.42 8.116-3.362Zm-9.702 3.362v-3.158a10.223 10.223 0 0 1-5.883-2.437L6.091 25.53a13.357 13.357 0 0 0 8.116 3.362ZM4.97 24.409l2.233-2.233a10.224 10.224 0 0 1-2.437-5.883H1.608a13.357 13.357 0 0 0 3.362 8.116Zm-3.362-9.702h3.158a10.223 10.223 0 0 1 2.437-5.883L4.97 6.591a13.357 13.357 0 0 0-3.362 8.116Zm2.785-9.814A14.956 14.956 0 0 1 15 .5c4.142 0 7.893 1.68 10.607 4.393A14.956 14.956 0 0 1 30 15.5c0 4.142-1.68 7.893-4.393 10.607A14.956 14.956 0 0 1 15 30.5c-4.142 0-7.893-1.68-10.607-4.393A14.956 14.956 0 0 1 0 15.5c0-4.142 1.68-7.893 4.393-10.607ZM15 6.821a8.65 8.65 0 0 0-6.137 2.542A8.65 8.65 0 0 0 6.321 15.5a8.65 8.65 0 0 0 2.542 6.137A8.65 8.65 0 0 0 15 24.179a8.65 8.65 0 0 0 6.137-2.542 8.65 8.65 0 0 0 2.542-6.137 8.65 8.65 0 0 0-2.542-6.137A8.65 8.65 0 0 0 15 6.821Zm-1.102 3.126v3.382h-1.585v-.715a3.933 3.933 0 0 0-1.256 2.886c0 1.139.483 2.166 1.256 2.886v-.715h1.585v3.382l-1.11-.485a5.53 5.53 0 0 1 0-10.136l1.11-.485Zm2.204 0 1.11.485a5.53 5.53 0 0 1 0 10.136l-1.11.485v-3.382h1.585v.715a3.933 3.933 0 0 0 1.256-2.886 3.933 3.933 0 0 0-1.256-2.886v.715h-1.585V9.947Z"/></symbol>
   <symbol id="map-marker" viewbox="0 0 15 18"><path fill-rule="evenodd" clip-rule="evenodd" d="m6.75 17.426.217.172.532.399.532-.4a23.787 23.787 0 0 0 .98-.811 26.19 26.19 0 0 0 2.31-2.28c1.65-1.853 3.452-4.482 3.452-7.232a7.274 7.274 0 0 0-14.548 0c0 2.75 1.803 5.379 3.452 7.232a26.187 26.187 0 0 0 3.073 2.92ZM7.499 1.5a5.774 5.774 0 0 0-5.774 5.774c0 2.158 1.46 4.422 3.072 6.235A24.667 24.667 0 0 0 7.5 16.102a24.667 24.667 0 0 0 2.702-2.593c1.613-1.813 3.072-4.077 3.072-6.235A5.774 5.774 0 0 0 7.499 1.5Z"/><path fill-rule="evenodd" clip-rule="evenodd" d="M7.499 4.762a2.512 2.512 0 1 0 0 5.024 2.512 2.512 0 0 0 0-5.024ZM3.487 7.274a4.012 4.012 0 1 1 8.024 0 4.012 4.012 0 0 1-8.024 0Z"/></symbol>
   <symbol id="phone" viewbox="0 0 19 18"><path fill-rule="evenodd" clip-rule="evenodd" d="M13.971.039a1.527 1.527 0 0 0-1.742.882l-.001.003-1.549 3.61c-.267.623-.09 1.35.44 1.779l1.486 1.218a11.21 11.21 0 0 1-4.573 4.572l-1.22-1.489a1.52 1.52 0 0 0-1.777-.437l-3.608 1.545-.006.003a1.533 1.533 0 0 0-.882 1.745l.773 3.351c.16.688.772 1.18 1.484 1.18C11.46 18 18.498 10.98 18.5 2.301A1.513 1.513 0 0 0 17.323.815L13.97.039Zm-.366 1.479-1.547 3.607 2.413 1.996-.248.529A12.692 12.692 0 0 1 8.15 13.72l-.528.248-1.997-2.413L2.023 13.1a.042.042 0 0 0-.02.019C2 13.126 2 13.13 2 13.13v.001l.773 3.351c.002.01.01.017.023.017C10.635 16.5 17 10.148 17 2.3v-.014l-.002-.003-.003-.003-.007-.002h-.002L13.635 1.5h-.008a.026.026 0 0 0-.008.002.03.03 0 0 0-.014.015Z"/></symbol>
   <symbol id="arrow-right" viewbox="0 0 41 40"><circle cx="20.125" cy="20" r="19.5" stroke="white" stroke-opacity="0.3" fill="transparent"/><g clip-path="url(#clip0_5_2915)"><path fill-rule="evenodd" clip-rule="evenodd" d="M12.6244 20.75V19.25L20.6244 19.25L20.6244 13.7493L27.6251 20.75L12.6244 20.75Z" fill="white"/></g><defs><clippath id="clip0_5_2915"><rect width="15" height="15" fill="#fff" transform="translate(12.625 12.5)"/></clippath></defs></symbol>
</svg>