<svg width="30" height="31" viewBox="0 0 30 31" fill="none" xmlns="http://www.w3.org/2000/svg"><path fill-rule="evenodd" clip-rule="evenodd" d="m6.091 5.47 2.233 2.233a10.223 10.223 0 0 1 5.883-2.437V2.108A13.357 13.357 0 0 0 6.091 5.47Zm9.702-3.362v3.158a10.224 10.224 0 0 1 5.883 2.437l2.233-2.233a13.357 13.357 0 0 0-8.116-3.362Zm9.237 4.483-2.233 2.233a10.223 10.223 0 0 1 2.437 5.883h3.158a13.357 13.357 0 0 0-3.362-8.116Zm3.362 9.702h-3.158a10.223 10.223 0 0 1-2.437 5.883l2.233 2.233a13.357 13.357 0 0 0 3.362-8.116Zm-4.483 9.237-2.233-2.233a10.223 10.223 0 0 1-5.883 2.437v3.158c3.107-.181 5.93-1.42 8.116-3.362Zm-9.702 3.362v-3.158a10.223 10.223 0 0 1-5.883-2.437L6.091 25.53a13.357 13.357 0 0 0 8.116 3.362ZM4.97 24.409l2.233-2.233a10.224 10.224 0 0 1-2.437-5.883H1.608a13.357 13.357 0 0 0 3.362 8.116Zm-3.362-9.702h3.158a10.223 10.223 0 0 1 2.437-5.883L4.97 6.591a13.357 13.357 0 0 0-3.362 8.116Zm2.785-9.814A14.956 14.956 0 0 1 15 .5c4.142 0 7.893 1.68 10.607 4.393A14.956 14.956 0 0 1 30 15.5c0 4.142-1.68 7.893-4.393 10.607A14.956 14.956 0 0 1 15 30.5c-4.142 0-7.893-1.68-10.607-4.393A14.956 14.956 0 0 1 0 15.5c0-4.142 1.68-7.893 4.393-10.607ZM15 6.821a8.65 8.65 0 0 0-6.137 2.542A8.65 8.65 0 0 0 6.321 15.5a8.65 8.65 0 0 0 2.542 6.137A8.65 8.65 0 0 0 15 24.179a8.65 8.65 0 0 0 6.137-2.542 8.65 8.65 0 0 0 2.542-6.137 8.65 8.65 0 0 0-2.542-6.137A8.65 8.65 0 0 0 15 6.821Zm-1.102 3.126v3.382h-1.585v-.715a3.933 3.933 0 0 0-1.256 2.886c0 1.139.483 2.166 1.256 2.886v-.715h1.585v3.382l-1.11-.485a5.53 5.53 0 0 1 0-10.136l1.11-.485Zm2.204 0 1.11.485a5.53 5.53 0 0 1 0 10.136l-1.11.485v-3.382h1.585v.715a3.933 3.933 0 0 0 1.256-2.886 3.933 3.933 0 0 0-1.256-2.886v.715h-1.585V9.947Z" fill="#222"/></svg>