<svg width="15" height="18" viewBox="0 0 15 18" fill="none" xmlns="http://www.w3.org/2000/svg"><path fill-rule="evenodd" clip-rule="evenodd" d="m6.75 17.426.217.172.532.399.532-.4a23.787 23.787 0 0 0 .98-.811 26.19 26.19 0 0 0 2.31-2.28c1.65-1.853 3.452-4.482 3.452-7.232a7.274 7.274 0 0 0-14.548 0c0 2.75 1.803 5.379 3.452 7.232a26.187 26.187 0 0 0 3.073 2.92ZM7.499 1.5a5.774 5.774 0 0 0-5.774 5.774c0 2.158 1.46 4.422 3.072 6.235A24.667 24.667 0 0 0 7.5 16.102a24.667 24.667 0 0 0 2.702-2.593c1.613-1.813 3.072-4.077 3.072-6.235A5.774 5.774 0 0 0 7.499 1.5Z" fill="#222"/><path fill-rule="evenodd" clip-rule="evenodd" d="M7.499 4.762a2.512 2.512 0 1 0 0 5.024 2.512 2.512 0 0 0 0-5.024ZM3.487 7.274a4.012 4.012 0 1 1 8.024 0 4.012 4.012 0 0 1-8.024 0Z" fill="#222"/></svg>