<svg width="19" height="18" viewBox="0 0 19 18" fill="none" xmlns="http://www.w3.org/2000/svg"><path fill-rule="evenodd" clip-rule="evenodd" d="M13.971.039a1.527 1.527 0 0 0-1.742.882l-.001.003-1.549 3.61c-.267.623-.09 1.35.44 1.779l1.486 1.218a11.21 11.21 0 0 1-4.573 4.572l-1.22-1.489a1.52 1.52 0 0 0-1.777-.437l-3.608 1.545-.006.003a1.533 1.533 0 0 0-.882 1.745l.773 3.351c.16.688.772 1.18 1.484 1.18C11.46 18 18.498 10.98 18.5 2.301A1.513 1.513 0 0 0 17.323.815L13.97.039Zm-.366 1.479-1.547 3.607 2.413 1.996-.248.529A12.692 12.692 0 0 1 8.15 13.72l-.528.248-1.997-2.413L2.023 13.1a.042.042 0 0 0-.02.019C2 13.126 2 13.13 2 13.13v.001l.773 3.351c.002.01.01.017.023.017C10.635 16.5 17 10.148 17 2.3v-.014l-.002-.003-.003-.003-.007-.002h-.002L13.635 1.5h-.008a.026.026 0 0 0-.008.002.03.03 0 0 0-.014.015Z" fill="#222"/></svg>